<mxfile host="Electron" agent="Mozilla/5.0 (Windows NT 10.0; Win64; x64) AppleWebKit/537.36 (KHTML, like Gecko) draw.io/24.7.8 Chrome/128.0.6613.36 Electron/32.0.1 Safari/537.36" version="24.7.8">
  <diagram name="Page-1" id="Pi7ekk1gOqCMkIKP1s1b">
    <mxGraphModel dx="1036" dy="606" grid="1" gridSize="10" guides="1" tooltips="1" connect="1" arrows="1" fold="1" page="1" pageScale="1" pageWidth="850" pageHeight="1100" math="0" shadow="0">
      <root>
        <mxCell id="0" />
        <mxCell id="1" parent="0" />
        <mxCell id="8dF4_pI3xmYzBbSQNe2d-7" style="edgeStyle=orthogonalEdgeStyle;rounded=0;orthogonalLoop=1;jettySize=auto;html=1;exitX=1;exitY=0.5;exitDx=0;exitDy=0;entryX=0;entryY=0.5;entryDx=0;entryDy=0;" parent="1" source="8dF4_pI3xmYzBbSQNe2d-1" target="8dF4_pI3xmYzBbSQNe2d-2" edge="1">
          <mxGeometry relative="1" as="geometry" />
        </mxCell>
        <mxCell id="8dF4_pI3xmYzBbSQNe2d-8" value="makes" style="edgeLabel;html=1;align=center;verticalAlign=middle;resizable=0;points=[];" parent="8dF4_pI3xmYzBbSQNe2d-7" vertex="1" connectable="0">
          <mxGeometry y="-1" relative="1" as="geometry">
            <mxPoint as="offset" />
          </mxGeometry>
        </mxCell>
        <mxCell id="8dF4_pI3xmYzBbSQNe2d-11" style="edgeStyle=orthogonalEdgeStyle;rounded=0;orthogonalLoop=1;jettySize=auto;html=1;exitX=0.5;exitY=1;exitDx=0;exitDy=0;entryX=0.087;entryY=-0.01;entryDx=0;entryDy=0;entryPerimeter=0;" parent="1" source="8dF4_pI3xmYzBbSQNe2d-1" target="8dF4_pI3xmYzBbSQNe2d-3" edge="1">
          <mxGeometry relative="1" as="geometry">
            <Array as="points">
              <mxPoint x="30" y="100" />
            </Array>
          </mxGeometry>
        </mxCell>
        <mxCell id="8dF4_pI3xmYzBbSQNe2d-12" value="requests" style="edgeLabel;html=1;align=center;verticalAlign=middle;resizable=0;points=[];" parent="8dF4_pI3xmYzBbSQNe2d-11" vertex="1" connectable="0">
          <mxGeometry x="-0.044" y="1" relative="1" as="geometry">
            <mxPoint as="offset" />
          </mxGeometry>
        </mxCell>
        <mxCell id="FIvFv_yQ3IcndO2vfjJz-10" value="makes" style="edgeStyle=orthogonalEdgeStyle;rounded=0;orthogonalLoop=1;jettySize=auto;html=1;exitX=0.5;exitY=0;exitDx=0;exitDy=0;entryX=0.5;entryY=0;entryDx=0;entryDy=0;" edge="1" parent="1" source="8dF4_pI3xmYzBbSQNe2d-1" target="FIvFv_yQ3IcndO2vfjJz-9">
          <mxGeometry relative="1" as="geometry" />
        </mxCell>
        <mxCell id="8dF4_pI3xmYzBbSQNe2d-1" value="Driver" style="rounded=0;whiteSpace=wrap;html=1;fillColor=#0050ef;strokeColor=#001DBC;fontColor=#ffffff;" parent="1" vertex="1">
          <mxGeometry x="40" y="40" width="120" height="60" as="geometry" />
        </mxCell>
        <mxCell id="8dF4_pI3xmYzBbSQNe2d-19" style="edgeStyle=orthogonalEdgeStyle;rounded=0;orthogonalLoop=1;jettySize=auto;html=1;exitX=0.75;exitY=1;exitDx=0;exitDy=0;entryX=0.5;entryY=0;entryDx=0;entryDy=0;" parent="1" source="8dF4_pI3xmYzBbSQNe2d-2" target="8dF4_pI3xmYzBbSQNe2d-5" edge="1">
          <mxGeometry relative="1" as="geometry">
            <Array as="points">
              <mxPoint x="380" y="200" />
              <mxPoint x="470" y="200" />
            </Array>
          </mxGeometry>
        </mxCell>
        <mxCell id="8dF4_pI3xmYzBbSQNe2d-20" value="calculates" style="edgeLabel;html=1;align=center;verticalAlign=middle;resizable=0;points=[];" parent="8dF4_pI3xmYzBbSQNe2d-19" vertex="1" connectable="0">
          <mxGeometry x="-0.69" y="-3" relative="1" as="geometry">
            <mxPoint x="3" y="14" as="offset" />
          </mxGeometry>
        </mxCell>
        <mxCell id="8dF4_pI3xmYzBbSQNe2d-22" style="edgeStyle=orthogonalEdgeStyle;rounded=0;orthogonalLoop=1;jettySize=auto;html=1;exitX=1;exitY=0.5;exitDx=0;exitDy=0;entryX=0;entryY=0.5;entryDx=0;entryDy=0;strokeColor=default;dashed=1;" parent="1" source="8dF4_pI3xmYzBbSQNe2d-2" target="8dF4_pI3xmYzBbSQNe2d-6" edge="1">
          <mxGeometry relative="1" as="geometry">
            <Array as="points">
              <mxPoint x="500" y="70" />
              <mxPoint x="500" y="70" />
            </Array>
          </mxGeometry>
        </mxCell>
        <mxCell id="8dF4_pI3xmYzBbSQNe2d-23" value="may include" style="edgeLabel;html=1;align=center;verticalAlign=middle;resizable=0;points=[];" parent="8dF4_pI3xmYzBbSQNe2d-22" vertex="1" connectable="0">
          <mxGeometry x="-0.1211" y="-1" relative="1" as="geometry">
            <mxPoint as="offset" />
          </mxGeometry>
        </mxCell>
        <mxCell id="8dF4_pI3xmYzBbSQNe2d-24" style="edgeStyle=orthogonalEdgeStyle;rounded=0;orthogonalLoop=1;jettySize=auto;html=1;exitX=0;exitY=0.75;exitDx=0;exitDy=0;entryX=1;entryY=0.75;entryDx=0;entryDy=0;" parent="1" source="8dF4_pI3xmYzBbSQNe2d-2" target="8dF4_pI3xmYzBbSQNe2d-1" edge="1">
          <mxGeometry relative="1" as="geometry" />
        </mxCell>
        <mxCell id="8dF4_pI3xmYzBbSQNe2d-25" value="reserves" style="edgeLabel;html=1;align=center;verticalAlign=middle;resizable=0;points=[];" parent="8dF4_pI3xmYzBbSQNe2d-24" vertex="1" connectable="0">
          <mxGeometry x="-0.0154" y="2" relative="1" as="geometry">
            <mxPoint as="offset" />
          </mxGeometry>
        </mxCell>
        <mxCell id="FIvFv_yQ3IcndO2vfjJz-6" style="edgeStyle=orthogonalEdgeStyle;rounded=0;orthogonalLoop=1;jettySize=auto;html=1;exitX=0;exitY=1;exitDx=0;exitDy=0;entryX=1;entryY=0;entryDx=0;entryDy=0;" edge="1" parent="1" source="8dF4_pI3xmYzBbSQNe2d-2" target="FIvFv_yQ3IcndO2vfjJz-5">
          <mxGeometry relative="1" as="geometry" />
        </mxCell>
        <mxCell id="FIvFv_yQ3IcndO2vfjJz-7" value="reserves" style="edgeLabel;html=1;align=center;verticalAlign=middle;resizable=0;points=[];" vertex="1" connectable="0" parent="FIvFv_yQ3IcndO2vfjJz-6">
          <mxGeometry x="-0.0164" y="-1" relative="1" as="geometry">
            <mxPoint as="offset" />
          </mxGeometry>
        </mxCell>
        <mxCell id="FIvFv_yQ3IcndO2vfjJz-14" value="produces" style="edgeStyle=orthogonalEdgeStyle;rounded=0;orthogonalLoop=1;jettySize=auto;html=1;exitX=1;exitY=1;exitDx=0;exitDy=0;entryX=0;entryY=0.5;entryDx=0;entryDy=0;" edge="1" parent="1" source="8dF4_pI3xmYzBbSQNe2d-2" target="FIvFv_yQ3IcndO2vfjJz-2">
          <mxGeometry relative="1" as="geometry">
            <Array as="points">
              <mxPoint x="470" y="100" />
              <mxPoint x="470" y="180" />
            </Array>
          </mxGeometry>
        </mxCell>
        <mxCell id="8dF4_pI3xmYzBbSQNe2d-2" value="Reservation" style="rounded=0;whiteSpace=wrap;html=1;fillColor=#0050ef;fontColor=#ffffff;strokeColor=#001DBC;" parent="1" vertex="1">
          <mxGeometry x="290" y="40" width="120" height="60" as="geometry" />
        </mxCell>
        <mxCell id="8dF4_pI3xmYzBbSQNe2d-3" value="Extension" style="rounded=0;whiteSpace=wrap;html=1;" parent="1" vertex="1">
          <mxGeometry x="20" y="330" width="120" height="60" as="geometry" />
        </mxCell>
        <mxCell id="8dF4_pI3xmYzBbSQNe2d-15" style="edgeStyle=orthogonalEdgeStyle;rounded=0;orthogonalLoop=1;jettySize=auto;html=1;exitX=1;exitY=0.5;exitDx=0;exitDy=0;entryX=0;entryY=0.5;entryDx=0;entryDy=0;" parent="1" source="8dF4_pI3xmYzBbSQNe2d-4" target="8dF4_pI3xmYzBbSQNe2d-5" edge="1">
          <mxGeometry relative="1" as="geometry">
            <Array as="points" />
          </mxGeometry>
        </mxCell>
        <mxCell id="8dF4_pI3xmYzBbSQNe2d-28" value="updates" style="edgeLabel;html=1;align=center;verticalAlign=middle;resizable=0;points=[];" parent="8dF4_pI3xmYzBbSQNe2d-15" vertex="1" connectable="0">
          <mxGeometry x="-0.1529" y="1" relative="1" as="geometry">
            <mxPoint x="8" y="1" as="offset" />
          </mxGeometry>
        </mxCell>
        <mxCell id="8dF4_pI3xmYzBbSQNe2d-4" value="Admin" style="rounded=0;whiteSpace=wrap;html=1;" parent="1" vertex="1">
          <mxGeometry x="220" y="200" width="120" height="60" as="geometry" />
        </mxCell>
        <mxCell id="8dF4_pI3xmYzBbSQNe2d-5" value="Rental Charge" style="rounded=0;whiteSpace=wrap;html=1;" parent="1" vertex="1">
          <mxGeometry x="410" y="290" width="120" height="60" as="geometry" />
        </mxCell>
        <mxCell id="8dF4_pI3xmYzBbSQNe2d-6" value="Discount" style="rounded=0;whiteSpace=wrap;html=1;" parent="1" vertex="1">
          <mxGeometry x="530" y="40" width="120" height="60" as="geometry" />
        </mxCell>
        <mxCell id="FIvFv_yQ3IcndO2vfjJz-1" value="Availability" style="rounded=0;whiteSpace=wrap;html=1;" vertex="1" parent="1">
          <mxGeometry x="190" y="330" width="120" height="60" as="geometry" />
        </mxCell>
        <mxCell id="FIvFv_yQ3IcndO2vfjJz-2" value="Booking Confirmation" style="rounded=0;whiteSpace=wrap;html=1;" vertex="1" parent="1">
          <mxGeometry x="530" y="150" width="120" height="60" as="geometry" />
        </mxCell>
        <mxCell id="FIvFv_yQ3IcndO2vfjJz-12" value="determines" style="edgeStyle=orthogonalEdgeStyle;rounded=0;orthogonalLoop=1;jettySize=auto;html=1;exitX=1;exitY=1;exitDx=0;exitDy=0;entryX=0.5;entryY=0;entryDx=0;entryDy=0;" edge="1" parent="1" source="FIvFv_yQ3IcndO2vfjJz-5" target="FIvFv_yQ3IcndO2vfjJz-1">
          <mxGeometry relative="1" as="geometry" />
        </mxCell>
        <mxCell id="FIvFv_yQ3IcndO2vfjJz-5" value="Car" style="rounded=0;whiteSpace=wrap;html=1;" vertex="1" parent="1">
          <mxGeometry x="60" y="200" width="120" height="60" as="geometry" />
        </mxCell>
        <mxCell id="FIvFv_yQ3IcndO2vfjJz-9" value="Payment" style="rounded=0;whiteSpace=wrap;html=1;" vertex="1" parent="1">
          <mxGeometry x="690" y="40" width="120" height="60" as="geometry" />
        </mxCell>
        <mxCell id="FIvFv_yQ3IcndO2vfjJz-15" value="Car" style="rounded=0;whiteSpace=wrap;html=1;" vertex="1" parent="1">
          <mxGeometry x="330" y="520" width="120" height="60" as="geometry" />
        </mxCell>
        <mxCell id="FIvFv_yQ3IcndO2vfjJz-22" style="edgeStyle=orthogonalEdgeStyle;rounded=0;orthogonalLoop=1;jettySize=auto;html=1;exitX=0.5;exitY=0;exitDx=0;exitDy=0;entryX=0;entryY=0.5;entryDx=0;entryDy=0;" edge="1" parent="1" source="FIvFv_yQ3IcndO2vfjJz-16" target="FIvFv_yQ3IcndO2vfjJz-15">
          <mxGeometry relative="1" as="geometry" />
        </mxCell>
        <mxCell id="FIvFv_yQ3IcndO2vfjJz-26" value="is a" style="edgeLabel;html=1;align=center;verticalAlign=middle;resizable=0;points=[];" vertex="1" connectable="0" parent="FIvFv_yQ3IcndO2vfjJz-22">
          <mxGeometry x="0.1696" y="-2" relative="1" as="geometry">
            <mxPoint as="offset" />
          </mxGeometry>
        </mxCell>
        <mxCell id="FIvFv_yQ3IcndO2vfjJz-16" value="SUV" style="rounded=0;whiteSpace=wrap;html=1;" vertex="1" parent="1">
          <mxGeometry x="90" y="620" width="120" height="60" as="geometry" />
        </mxCell>
        <mxCell id="FIvFv_yQ3IcndO2vfjJz-23" style="edgeStyle=orthogonalEdgeStyle;rounded=0;orthogonalLoop=1;jettySize=auto;html=1;exitX=0.5;exitY=0;exitDx=0;exitDy=0;entryX=0.5;entryY=1;entryDx=0;entryDy=0;" edge="1" parent="1" source="FIvFv_yQ3IcndO2vfjJz-17" target="FIvFv_yQ3IcndO2vfjJz-15">
          <mxGeometry relative="1" as="geometry" />
        </mxCell>
        <mxCell id="FIvFv_yQ3IcndO2vfjJz-27" value="is a" style="edgeLabel;html=1;align=center;verticalAlign=middle;resizable=0;points=[];" vertex="1" connectable="0" parent="FIvFv_yQ3IcndO2vfjJz-23">
          <mxGeometry x="0.1" relative="1" as="geometry">
            <mxPoint as="offset" />
          </mxGeometry>
        </mxCell>
        <mxCell id="FIvFv_yQ3IcndO2vfjJz-17" value="Sedan" style="rounded=0;whiteSpace=wrap;html=1;" vertex="1" parent="1">
          <mxGeometry x="330" y="640" width="120" height="60" as="geometry" />
        </mxCell>
        <mxCell id="FIvFv_yQ3IcndO2vfjJz-24" style="edgeStyle=orthogonalEdgeStyle;rounded=0;orthogonalLoop=1;jettySize=auto;html=1;exitX=0.5;exitY=0;exitDx=0;exitDy=0;entryX=1;entryY=0.5;entryDx=0;entryDy=0;" edge="1" parent="1" source="FIvFv_yQ3IcndO2vfjJz-18" target="FIvFv_yQ3IcndO2vfjJz-15">
          <mxGeometry relative="1" as="geometry" />
        </mxCell>
        <mxCell id="FIvFv_yQ3IcndO2vfjJz-25" value="is a" style="edgeLabel;html=1;align=center;verticalAlign=middle;resizable=0;points=[];" vertex="1" connectable="0" parent="FIvFv_yQ3IcndO2vfjJz-24">
          <mxGeometry x="0.2292" relative="1" as="geometry">
            <mxPoint as="offset" />
          </mxGeometry>
        </mxCell>
        <mxCell id="FIvFv_yQ3IcndO2vfjJz-18" value="Van" style="rounded=0;whiteSpace=wrap;html=1;" vertex="1" parent="1">
          <mxGeometry x="580" y="620" width="120" height="60" as="geometry" />
        </mxCell>
        <mxCell id="FIvFv_yQ3IcndO2vfjJz-19" value="&lt;font style=&quot;font-size: 24px;&quot;&gt;&lt;u&gt;Car Rental System Domain Model&lt;/u&gt;&lt;/font&gt;" style="text;html=1;align=center;verticalAlign=middle;resizable=0;points=[];autosize=1;strokeColor=none;fillColor=none;" vertex="1" parent="1">
          <mxGeometry x="220" y="410" width="390" height="40" as="geometry" />
        </mxCell>
        <mxCell id="FIvFv_yQ3IcndO2vfjJz-20" value="&lt;font style=&quot;font-size: 14px;&quot;&gt;&lt;b&gt;Is-a Relationship&lt;/b&gt;&lt;/font&gt;" style="text;html=1;align=center;verticalAlign=middle;resizable=0;points=[];autosize=1;strokeColor=none;fillColor=none;" vertex="1" parent="1">
          <mxGeometry x="320" y="470" width="140" height="30" as="geometry" />
        </mxCell>
        <mxCell id="FIvFv_yQ3IcndO2vfjJz-21" value="&lt;font style=&quot;font-size: 14px;&quot;&gt;&lt;b&gt;Has-a Relationship&lt;/b&gt;&lt;/font&gt;&lt;div&gt;&lt;br&gt;&lt;/div&gt;" style="text;html=1;align=center;verticalAlign=middle;resizable=0;points=[];autosize=1;strokeColor=none;fillColor=none;" vertex="1" parent="1">
          <mxGeometry x="320" y="740" width="150" height="40" as="geometry" />
        </mxCell>
        <mxCell id="FIvFv_yQ3IcndO2vfjJz-34" style="edgeStyle=orthogonalEdgeStyle;rounded=0;orthogonalLoop=1;jettySize=auto;html=1;exitX=1;exitY=0.5;exitDx=0;exitDy=0;entryX=0;entryY=0.5;entryDx=0;entryDy=0;" edge="1" parent="1" source="FIvFv_yQ3IcndO2vfjJz-28" target="FIvFv_yQ3IcndO2vfjJz-29">
          <mxGeometry relative="1" as="geometry" />
        </mxCell>
        <mxCell id="FIvFv_yQ3IcndO2vfjJz-35" value="has a" style="edgeLabel;html=1;align=center;verticalAlign=middle;resizable=0;points=[];" vertex="1" connectable="0" parent="FIvFv_yQ3IcndO2vfjJz-34">
          <mxGeometry x="0.04" y="-3" relative="1" as="geometry">
            <mxPoint as="offset" />
          </mxGeometry>
        </mxCell>
        <mxCell id="FIvFv_yQ3IcndO2vfjJz-47" style="edgeStyle=orthogonalEdgeStyle;rounded=0;orthogonalLoop=1;jettySize=auto;html=1;exitX=0.5;exitY=1;exitDx=0;exitDy=0;entryX=0.5;entryY=0;entryDx=0;entryDy=0;" edge="1" parent="1" source="FIvFv_yQ3IcndO2vfjJz-28" target="FIvFv_yQ3IcndO2vfjJz-31">
          <mxGeometry relative="1" as="geometry" />
        </mxCell>
        <mxCell id="FIvFv_yQ3IcndO2vfjJz-48" value="has a" style="edgeLabel;html=1;align=center;verticalAlign=middle;resizable=0;points=[];" vertex="1" connectable="0" parent="FIvFv_yQ3IcndO2vfjJz-47">
          <mxGeometry x="-0.2031" y="-3" relative="1" as="geometry">
            <mxPoint as="offset" />
          </mxGeometry>
        </mxCell>
        <mxCell id="FIvFv_yQ3IcndO2vfjJz-28" value="Driver" style="rounded=0;whiteSpace=wrap;html=1;" vertex="1" parent="1">
          <mxGeometry x="90" y="800" width="120" height="60" as="geometry" />
        </mxCell>
        <mxCell id="FIvFv_yQ3IcndO2vfjJz-36" style="edgeStyle=orthogonalEdgeStyle;rounded=0;orthogonalLoop=1;jettySize=auto;html=1;exitX=1;exitY=0.5;exitDx=0;exitDy=0;entryX=0;entryY=0.5;entryDx=0;entryDy=0;" edge="1" parent="1" source="FIvFv_yQ3IcndO2vfjJz-29" target="FIvFv_yQ3IcndO2vfjJz-30">
          <mxGeometry relative="1" as="geometry" />
        </mxCell>
        <mxCell id="FIvFv_yQ3IcndO2vfjJz-37" value="has a" style="edgeLabel;html=1;align=center;verticalAlign=middle;resizable=0;points=[];" vertex="1" connectable="0" parent="FIvFv_yQ3IcndO2vfjJz-36">
          <mxGeometry x="0.0171" y="-4" relative="1" as="geometry">
            <mxPoint as="offset" />
          </mxGeometry>
        </mxCell>
        <mxCell id="FIvFv_yQ3IcndO2vfjJz-29" value="Reservation" style="rounded=0;whiteSpace=wrap;html=1;" vertex="1" parent="1">
          <mxGeometry x="320" y="800" width="120" height="60" as="geometry" />
        </mxCell>
        <mxCell id="FIvFv_yQ3IcndO2vfjJz-30" value="Car" style="rounded=0;whiteSpace=wrap;html=1;" vertex="1" parent="1">
          <mxGeometry x="580" y="800" width="120" height="60" as="geometry" />
        </mxCell>
        <mxCell id="FIvFv_yQ3IcndO2vfjJz-31" value="Payment" style="rounded=0;whiteSpace=wrap;html=1;" vertex="1" parent="1">
          <mxGeometry x="105" y="990" width="90" height="40" as="geometry" />
        </mxCell>
        <mxCell id="FIvFv_yQ3IcndO2vfjJz-41" style="edgeStyle=orthogonalEdgeStyle;rounded=0;orthogonalLoop=1;jettySize=auto;html=1;entryX=0.75;entryY=1;entryDx=0;entryDy=0;startArrow=box;startFill=0;" edge="1" parent="1" target="FIvFv_yQ3IcndO2vfjJz-29">
          <mxGeometry relative="1" as="geometry">
            <mxPoint x="410" y="860" as="sourcePoint" />
          </mxGeometry>
        </mxCell>
        <mxCell id="FIvFv_yQ3IcndO2vfjJz-32" value="Rental Charge" style="rounded=0;whiteSpace=wrap;html=1;" vertex="1" parent="1">
          <mxGeometry x="500" y="950" width="100" height="40" as="geometry" />
        </mxCell>
        <mxCell id="FIvFv_yQ3IcndO2vfjJz-33" value="Discount" style="rounded=0;whiteSpace=wrap;html=1;" vertex="1" parent="1">
          <mxGeometry x="320" y="1000" width="100" height="40" as="geometry" />
        </mxCell>
        <mxCell id="FIvFv_yQ3IcndO2vfjJz-40" value="may have" style="edgeStyle=orthogonalEdgeStyle;rounded=0;orthogonalLoop=1;jettySize=auto;html=1;exitX=0.5;exitY=1;exitDx=0;exitDy=0;entryX=0.608;entryY=0.035;entryDx=0;entryDy=0;entryPerimeter=0;dashed=1;endArrow=oval;endFill=0;startArrow=none;startFill=0;" edge="1" parent="1" source="FIvFv_yQ3IcndO2vfjJz-29" target="FIvFv_yQ3IcndO2vfjJz-33">
          <mxGeometry x="0.1364" y="-1" relative="1" as="geometry">
            <mxPoint as="offset" />
          </mxGeometry>
        </mxCell>
        <mxCell id="FIvFv_yQ3IcndO2vfjJz-45" value="" style="endArrow=none;html=1;rounded=0;exitX=0.75;exitY=1;exitDx=0;exitDy=0;startArrow=box;startFill=0;entryX=0.5;entryY=0;entryDx=0;entryDy=0;" edge="1" parent="1" source="FIvFv_yQ3IcndO2vfjJz-29" target="FIvFv_yQ3IcndO2vfjJz-32">
          <mxGeometry width="50" height="50" relative="1" as="geometry">
            <mxPoint x="440" y="920" as="sourcePoint" />
            <mxPoint x="490" y="920" as="targetPoint" />
          </mxGeometry>
        </mxCell>
        <mxCell id="FIvFv_yQ3IcndO2vfjJz-46" value="has a" style="edgeLabel;html=1;align=center;verticalAlign=middle;resizable=0;points=[];" vertex="1" connectable="0" parent="FIvFv_yQ3IcndO2vfjJz-45">
          <mxGeometry x="-0.1384" relative="1" as="geometry">
            <mxPoint as="offset" />
          </mxGeometry>
        </mxCell>
      </root>
    </mxGraphModel>
  </diagram>
</mxfile>
